# xmcd CD database file
#
# Track frame offsets:
#	150
#	13550
#	26272
#	37580
#	51478
#	59637
#	72099
#	82292
#	96548
#	109171
#	124834
#	137362
#	150941
#	166236
#	188660
#	204010
#	228184
#	248624
#	271652
#	292985
#	308229
#
# Disc length: 4478 seconds
#
# Revision: 0
# Processed by: cddbd v1.5.2PL0 Copyright (c) Steve Scherf et al.
# Submitted via: CDex 1.51
#
DISCID=0c117c15
DTITLE=Ry Cooder - Ry Cooder and Borderline
DYEAR=1900
DGENRE=Blues
TTITLE0=Ry Cooder - Alimony
TTITLE1=Ry Cooder - France Chance
TTITLE2=Ry Cooder - One Meat Ball
TTITLE3=Ry Cooder - Do Re Mi
TTITLE4=Ry Cooder - My Old Kentucky Home (Turpentine and Dandelion Wine)
TTITLE5=Ry Cooder - How Can A Poor Man Stand Such Times And Live?
TTITLE6=Ry Cooder - Available Space
TTITLE7=Ry Cooder - Pigmeat
TTITLE8=Ry Cooder - Police Dog Blues
TTITLE9=Ry Cooder - Goin' To Brownsville
TTITLE10=Ry Cooder - Dark Is The Night
TTITLE11=Ry Cooder - 634-5789
TTITLE12=Ry Cooder - Speedo
TTITLE13=Ry Cooder - Why Don't You Try Me
TTITLE14=Ry Cooder - Down In The Boondocks
TTITLE15=Ry Cooder - Johnny Porter
TTITLE16=Ry Cooder - The Way We Make A Broken Heart
TTITLE17=Ry Cooder - Crazy 'Bout An Automobile (Every Woman I Know)
TTITLE18=Ry Cooder - The Girls From Texas
TTITLE19=Ry Cooder - Borderline
TTITLE20=Ry Cooder - Nerver Make Your Move Too Soon
EXTD=
EXTT0=
EXTT1=
EXTT2=
EXTT3=
EXTT4=
EXTT5=
EXTT6=
EXTT7=
EXTT8=
EXTT9=
EXTT10=
EXTT11=
EXTT12=
EXTT13=
EXTT14=
EXTT15=
EXTT16=
EXTT17=
EXTT18=
EXTT19=
EXTT20=
PLAYORDER=
